<?xml version="1.0" encoding="UTF-8"?><svg id="Layer_1" xmlns="http://www.w3.org/2000/svg" viewBox="0 0 747.13 424.78"><defs><style>.cls-1{fill:none;stroke:#164aae;stroke-miterlimit:10;}.cls-2{opacity:.5;}.cls-3{fill:#164aae;stroke-width:0px;}</style></defs><path class="cls-3" d="m89.6,217.15l13.3-50.4c4.1-16.1,19.9-29.8,39.1-29.8,24.3,0,26.5,17.7,23.9,27.7-3.5,12.5-16.5,27-34.9,27.7-4,0-6.7-.8-8.4-2.4l-6.8,25.7h4.3l-.4,1.5h-30.1Zm34.2-32.7c-1.3,5.1,2.9,5.6,4.2,5.6,1.4,0,4.7-.8,5.9-5.2l10.8-40.4c1.4-4.9-1.9-5.8-3.7-5.8-.9,0-5,.9-6.5,6.6l-10.7,39.2Z"/><path class="cls-3" d="m175.6,170.14c0-11.8,9.6-33.3,36.1-33.3,24.7,0,28.4,15.3,28.4,22.4,0,20-17.6,33-36.9,33s-27.6-8.7-27.6-22.1Zm21.5,15.4c-1.4,5.1,2.6,5.1,3.5,5.1,1.8,0,5.5-.9,6.7-5.8l11.1-41.1c1.1-4.4-2.2-5.2-3.6-5.2-1.3,0-5.1.2-6.6,5.6l-11.1,41.4Z"/><path class="cls-3" d="m271.2,191.44c-6.8-1.6-18.8-2-25.8,0l13.4-51.6h-4.3l.3-1.5h12.9c7.8,0,15.2,0,17.7-.6l-4.9,18.8c4.9-8.2,15.8-19.8,25.4-19.8,13.1,0,8.2,18.9-4.5,18.9-4.1,0-7.1-2.4-6.1-5.9.5-2.2,2.2-3.3,2.6-4.9.2-.9-.6-1.4-1.1-1.4-2.7,0-5.5,2.2-7.9,4.8-6.8,7.4-10.4,14.3-12.6,23.1l-5.1,20.1Z"/><path class="cls-3" d="m350.5,138.34h10.5l-.5,1.8h-10.4l-11.7,43.2c-1,3.7-1.5,5.1.1,5,1.3-.1,2.5-1.1,2.9-1.9h1.4c-2.6,4.5-8.8,5.9-13.3,5.9-13.5,0-17.7-8-13.5-22.9l7.8-29.3h-6l.4-1.8h6l3.9-14.6c9.7-1.2,19.3-3.5,28.2-6.7l-5.8,21.3Z"/><path class="cls-3" d="m382.4,196.04c-5,18.9-19.3,24.5-34.2,24.5-6.8,0-11-1.6-12.1-2.3l1.3-1.5c1.4.9,3.9,1.4,6.4,1.4,5.6,0,7.9-4.8,8.9-8.6l18.3-69.4h-5.2l.4-1.8h5.2l.2-.5c5-18.9,19.4-24.5,34.3-24.5,6.8,0,11,1.6,12.1,2.3l-1.3,1.5c-1.4-.9-3.9-1.4-6.4-1.4-5.6,0-7.8,4.8-8.9,8.6l-3.7,14h9.1l-.5,1.8h-9l-14.9,55.9Z"/><path class="cls-3" d="m404.3,170.14c0-11.8,9.6-33.3,36.1-33.3,24.7,0,28.4,15.3,28.4,22.4,0,20-17.6,33-36.9,33s-27.6-8.7-27.6-22.1Zm21.5,15.4c-1.4,5.1,2.6,5.1,3.5,5.1,1.8,0,5.5-.9,6.7-5.8l11.1-41.1c1.1-4.4-2.2-5.2-3.6-5.2-1.3,0-5.1.2-6.6,5.6l-11.1,41.4Z"/><path class="cls-3" d="m499.9,183.34c-.9,3.7-1.6,5.1.1,5,1.3-.1,2.6-1.1,3.1-1.9h1.4c-2.8,4.5-8.8,5.9-13.3,5.9-13.5,0-18.2-6-14.2-20.9l14.8-55.6h-4.3l.3-1.5h12.9c7.8,0,15.2,0,17.7-.6l-18.5,69.6Z"/><path class="cls-3" d="m541.8,183.34c-1,3.7-1.5,5.1.2,5,1.3-.1,2.4-1.1,2.9-1.9h1.4c-2.6,4.5-8.8,5.9-13.3,5.9-13.5,0-17.7-6.8-13.6-22.7l7.8-29.8h-3.8l.4-1.5h12.7c7.8,0,15.2,0,17.7-.6l-12.4,45.6Zm4.9-72.7c5.2,0,9.5,4.3,9.5,9.5s-4.3,9.5-9.5,9.5-9.5-4.3-9.5-9.5,4.3-9.5,9.5-9.5Z"/><path class="cls-3" d="m559.39,170.14c0-11.8,9.6-33.3,36.1-33.3,24.7,0,28.4,15.3,28.4,22.4,0,20-17.6,33-36.9,33s-27.6-8.7-27.6-22.1Zm21.5,15.4c-1.4,5.1,2.6,5.1,3.5,5.1,1.8,0,5.5-.9,6.7-5.8l11.1-41.1c1.1-4.4-2.2-5.2-3.6-5.2-1.3,0-5.1.2-6.6,5.6l-11.1,41.4Z"/><g class="cls-2"><path class="cls-1" d="m618.82,221.05l-13.3,50.4c-4.1,16.1-19.9,29.8-39.1,29.8-24.3,0-26.5-17.7-23.9-27.7,3.5-12.5,16.5-27,34.9-27.7,4,0,6.7.8,8.4,2.4l6.8-25.7h-4.3l.4-1.5h30.1Zm-34.2,32.7c1.3-5.1-2.9-5.6-4.2-5.6-1.4,0-4.7.8-5.9,5.2l-10.8,40.4c-1.4,4.9,1.9,5.8,3.7,5.8.9,0,5-.9,6.5-6.6l10.7-39.2Z"/><path class="cls-1" d="m532.82,268.05c0,11.8-9.6,33.3-36.1,33.3-24.7,0-28.4-15.3-28.4-22.4,0-20,17.6-33,36.9-33s27.6,8.7,27.6,22.1Zm-21.5-15.4c1.4-5.1-2.6-5.1-3.5-5.1-1.8,0-5.5.9-6.7,5.8l-11.1,41.1c-1.1,4.4,2.2,5.2,3.6,5.2,1.3,0,5.1-.2,6.6-5.6l11.1-41.4Z"/><path class="cls-1" d="m437.22,246.75c6.8,1.6,18.8,2,25.8,0l-13.4,51.6h4.3l-.3,1.5h-12.9c-7.8,0-15.2,0-17.7.6l4.9-18.8c-4.9,8.2-15.8,19.8-25.4,19.8-13.1,0-8.2-18.9,4.5-18.9,4.1,0,7.1,2.4,6.1,5.9-.5,2.2-2.2,3.3-2.6,4.9-.2.9.6,1.4,1.1,1.4,2.7,0,5.5-2.2,7.9-4.8,6.8-7.4,10.4-14.3,12.6-23.1l5.1-20.1Z"/><path class="cls-1" d="m357.92,299.85h-10.5l.5-1.8h10.4l11.7-43.2c1-3.7,1.5-5.1-.1-5-1.3.1-2.5,1.1-2.9,1.9h-1.4c2.6-4.5,8.8-5.9,13.3-5.9,13.5,0,17.7,8,13.5,22.9l-7.8,29.3h6l-.4,1.8h-6l-3.9,14.6c-9.7,1.2-19.3,3.5-28.2,6.7l5.8-21.3Z"/><path class="cls-1" d="m326.02,242.15c5-18.9,19.3-24.5,34.2-24.5,6.8,0,11,1.6,12.1,2.3l-1.3,1.5c-1.4-.9-3.9-1.4-6.4-1.4-5.6,0-7.9,4.8-8.9,8.6l-18.3,69.4h5.2l-.4,1.8h-5.2l-.2.5c-5,18.9-19.4,24.5-34.3,24.5-6.8,0-11-1.6-12.1-2.3l1.3-1.5c1.4.9,3.9,1.4,6.4,1.4,5.6,0,7.8-4.8,8.9-8.6l3.7-14h-9.1l.5-1.8h9l14.9-55.9Z"/><path class="cls-1" d="m304.12,268.05c0,11.8-9.6,33.3-36.1,33.3-24.7,0-28.4-15.3-28.4-22.4,0-20,17.6-33,36.9-33s27.6,8.7,27.6,22.1Zm-21.5-15.4c1.4-5.1-2.6-5.1-3.5-5.1-1.8,0-5.5.9-6.7,5.8l-11.1,41.1c-1.1,4.4,2.2,5.2,3.6,5.2,1.3,0,5.1-.2,6.6-5.6l11.1-41.4Z"/><path class="cls-1" d="m208.52,254.85c.9-3.7,1.6-5.1-.1-5-1.3.1-2.6,1.1-3.1,1.9h-1.4c2.8-4.5,8.8-5.9,13.3-5.9,13.5,0,18.2,6,14.2,20.9l-14.8,55.6h4.3l-.3,1.5h-12.9c-7.8,0-15.2,0-17.7.6l18.5-69.6Z"/><path class="cls-1" d="m161.72,327.56c-5.2,0-9.5-4.3-9.5-9.5s4.3-9.5,9.5-9.5,9.5,4.3,9.5,9.5-4.3,9.5-9.5,9.5Zm4.9-72.7c1-3.7,1.5-5.1-.2-5-1.3.1-2.4,1.1-2.9,1.9h-1.4c2.6-4.5,8.8-5.9,13.3-5.9,13.5,0,17.7,6.8,13.6,22.7l-7.8,29.8h3.8l-.4,1.5h-12.7c-7.8,0-15.2,0-17.7.6l12.4-45.6Z"/><path class="cls-1" d="m149.03,268.05c0,11.8-9.6,33.3-36.1,33.3-24.7,0-28.4-15.3-28.4-22.4,0-20,17.6-33,36.9-33s27.6,8.7,27.6,22.1Zm-21.5-15.4c1.4-5.1-2.6-5.1-3.5-5.1-1.8,0-5.5.9-6.7,5.8l-11.1,41.1c-1.1,4.4,2.2,5.2,3.6,5.2,1.3,0,5.1-.2,6.6-5.6l11.1-41.4Z"/></g><path class="cls-1" d="m733.57,217.54c-15.12,29.36-32.29,25.16-70,70-55.29,65.75-41.57,102.37-78,126-44.55,28.9-82.59-14.49-185-22-124.5-9.13-144.77,49.4-233,28C85.05,399.52-2.41,322.79.57,239.54c2.2-61.31,52.66-103.78,66-115,61.49-51.74,128.43-48.94,220-57,267.26-23.54,328.55-103.06,399-48,56.41,44.08,76.93,141.81,48,198Z"/></svg>